<svg xmlns="http://www.w3.org/2000/svg" viewBox="0 0 231 231"><defs><style>.cls-1{fill:none;stroke:#444;stroke-linecap:round;stroke-miterlimit:10;stroke-width:3px;}.cls-2{fill:#444;}</style></defs><title>Asset 4</title><g id="Layer_2" data-name="Layer 2"><g id="_1_Color" data-name="1_Color"><path class="cls-1" d="M169,229.5H62A60.53,60.53,0,0,1,1.5,169V62A60.53,60.53,0,0,1,62,1.5H169A60.53,60.53,0,0,1,229.5,62V169A60.53,60.53,0,0,1,169,229.5Z"/><path class="cls-2" d="M102.38,16.55h3.86a0,0,0,0,1,0,0V133.94a24.52,24.52,0,0,1-24.52,24.52H77.86a0,0,0,0,1,0,0V41.07a24.52,24.52,0,0,1,24.52-24.52Z"/><path class="cls-2" d="M55,73.12h4.93a0,0,0,0,1,0,0v85.54a0,0,0,0,1,0,0H55a31.34,31.34,0,0,1-31.34-31.34V104.45A31.34,31.34,0,0,1,55,73.12Z"/><path class="cls-2" d="M149.1,73.12H153a0,0,0,0,1,0,0V190.51A24.52,24.52,0,0,1,128.43,215h-3.86a0,0,0,0,1,0,0V97.64A24.52,24.52,0,0,1,149.1,73.12Z" transform="translate(277.53 288.15) rotate(-180)"/><path class="cls-2" d="M201.84,72.92h4.93a0,0,0,0,1,0,0v85.54a0,0,0,0,1,0,0h-4.93a31.34,31.34,0,0,1-31.34-31.34V104.26a31.34,31.34,0,0,1,31.34-31.34Z" transform="translate(377.27 231.38) rotate(180)"/><rect class="cls-2" x="59.53" y="73.12" width="7.49" height="1.58"/><rect class="cls-2" x="59.53" y="157.08" width="7.49" height="1.58"/><rect class="cls-2" x="163.6" y="72.92" width="7.49" height="1.58"/><rect class="cls-2" x="163.6" y="156.89" width="7.49" height="1.58"/></g></g></svg>