<?xml version="1.0" standalone="no"?><svg xmlns="http://www.w3.org/2000/svg" viewBox="0 0 1440 320"><path fill="#6c81aa" fill-opacity="1" d="M0,160L30,160C60,160,120,160,180,181.3C240,203,300,245,360,245.3C420,245,480,203,540,176C600,149,660,139,720,149.3C780,160,840,192,900,213.3C960,235,1020,245,1080,218.7C1140,192,1200,128,1260,96C1320,64,1380,64,1410,64L1440,64L1440,320L1410,320C1380,320,1320,320,1260,320C1200,320,1140,320,1080,320C1020,320,960,320,900,320C840,320,780,320,720,320C660,320,600,320,540,320C480,320,420,320,360,320C300,320,240,320,180,320C120,320,60,320,30,320L0,320Z"></path></svg>