<svg xmlns="http://www.w3.org/2000/svg" viewBox="0 0 195.12 211.5"><defs><style>.cls-1{fill:#fff;}</style></defs><title>Asset 3</title><g id="Layer_2" data-name="Layer 2"><g id="White_Final"><path class="cls-1" d="M83.63,0H88a0,0,0,0,1,0,0V121a30.24,30.24,0,0,1-30.24,30.24h0a0,0,0,0,1,0,0V25.88A25.88,25.88,0,0,1,83.63,0Z"/><path class="cls-1" d="M35.86,60.28h2.78a0,0,0,0,1,0,0v91.15a0,0,0,0,1,0,0H35.86A35.86,35.86,0,0,1,0,115.57V96.14A35.86,35.86,0,0,1,35.86,60.28Z"/><path class="cls-1" d="M137.78,60.28h0a0,0,0,0,1,0,0v121a30.24,30.24,0,0,1-30.24,30.24h0a0,0,0,0,1,0,0v-121a30.24,30.24,0,0,1,30.24-30.24Z" transform="translate(245.31 271.78) rotate(-180)"/><path class="cls-1" d="M195.12,60.07h0a0,0,0,0,1,0,0v91.15a0,0,0,0,1,0,0h0a38.65,38.65,0,0,1-38.65-38.65V98.71A38.65,38.65,0,0,1,195.12,60.07Z" transform="translate(351.59 211.29) rotate(-180)"/><rect class="cls-1" x="38.23" y="60.28" width="7.98" height="1.68"/><rect class="cls-1" x="38.23" y="149.75" width="7.98" height="1.68"/><rect class="cls-1" x="149.12" y="60.07" width="7.98" height="1.68"/><rect class="cls-1" x="149.12" y="149.54" width="7.98" height="1.68"/></g></g></svg>